# Blender 5.1.2
# www.blender.org
mtllib stilletoblade.mtl
o Blade_low_lambert2_0
v -0.062676 1.394365 0.017025
v -0.030917 1.325692 0.013169
v -0.087965 1.329864 0.017172
v -0.124925 0.025122 0.009510
v -0.125634 0.025083 0.022464
v -0.149858 0.039354 0.014985
v -0.063229 1.394336 0.027131
v -0.088367 1.329842 0.024528
v -0.032018 1.325632 0.033299
v -0.080080 1.420146 0.021420
v -0.063229 1.394336 0.027131
v -0.062676 1.394365 0.017025
v 0.113361 -0.325066 0.000410
v 0.120338 -0.294275 0.000783
v 0.117633 -0.294421 0.050210
v 0.110656 -0.325212 0.049838
v 0.122907 -0.267860 0.000958
v 0.120202 -0.268006 0.050386
v -0.133471 -0.027588 -0.005077
v -0.142668 -0.055137 -0.009721
v -0.145372 -0.055284 0.039706
v -0.135719 -0.027709 0.035997
v -0.142063 -0.077718 -0.009753
v -0.144768 -0.077864 0.039675
v 0.059870 0.889824 0.005889
v 0.050959 0.978847 0.007281
v 0.048933 0.978738 0.044312
v 0.057675 0.889705 0.046000
v 0.039300 1.067750 0.008533
v 0.037439 1.067650 0.042532
v 0.022495 1.156428 0.009532
v 0.020797 1.156336 0.040568
v -0.000546 1.243027 0.010877
v -0.002015 1.242947 0.037723
v 0.077065 0.696638 0.003311
v 0.068426 0.800785 0.004473
v 0.066061 0.800658 0.047682
v 0.074563 0.696503 0.049041
v -0.030917 1.325692 0.013169
v -0.032018 1.325632 0.033299
v -0.137721 0.683501 0.014444
v -0.138996 0.791698 0.014917
v 0.068426 0.800785 0.004473
v 0.077065 0.696638 0.003311
v -0.138920 0.881116 0.015312
v 0.059870 0.889824 0.005889
v -0.286710 -0.204459 -0.016182
v -0.276813 -0.190655 -0.015729
v -0.276335 -0.229361 -0.015807
v -0.290665 -0.226924 -0.016406
v -0.260201 -0.186310 -0.015017
v -0.259050 -0.233905 -0.015088
v -0.257900 -0.281499 -0.015160
v -0.275857 -0.268067 -0.015884
v -0.287455 -0.250607 -0.016330
v 0.061756 -0.377042 -0.001901
v 0.002030 -0.389939 -0.004456
v 0.000419 -0.364749 -0.004460
v 0.096350 -0.354036 -0.000381
v -0.058502 -0.390241 -0.007013
v -0.095513 -0.375462 -0.008539
v -0.115783 -0.348457 -0.009327
v -0.001211 -0.336761 -0.004458
v 0.113361 -0.325066 0.000410
v -0.138604 0.970544 0.015701
v 0.050959 0.978847 0.007281
v -0.136357 1.060056 0.016164
v 0.039300 1.067750 0.008533
v -0.130490 1.149726 0.016782
v 0.022495 1.156428 0.009532
v -0.114131 1.238057 0.017215
v -0.000546 1.243027 0.010877
v -0.151154 1.148821 0.017732
v -0.135339 1.238924 0.018628
v -0.159881 1.059025 0.017137
v -0.163882 0.969436 0.016742
v -0.165362 0.879957 0.016453
v -0.166526 0.790492 0.016178
v -0.166182 0.682328 0.015919
v -0.115783 -0.348457 -0.009327
v -0.095513 -0.375462 -0.008539
v -0.097977 -0.380926 0.040885
v -0.118488 -0.348603 0.040101
v -0.058502 -0.390241 -0.007013
v -0.060837 -0.398561 0.042409
v 0.061756 -0.377042 -0.001901
v 0.096350 -0.354036 -0.000381
v 0.093645 -0.354182 0.049046
v 0.059291 -0.382506 0.047524
v 0.002030 -0.389939 -0.004456
v -0.000305 -0.398259 0.044967
v 0.122907 -0.267860 0.000958
v 0.120338 -0.294275 0.000783
v -0.002877 -0.303178 -0.004444
v -0.022705 -0.268492 -0.005194
v -0.126091 -0.312082 -0.009670
v -0.133692 -0.279865 -0.009910
v 0.112786 0.097946 0.050987
v 0.115490 0.098092 0.001578
v 0.111768 0.157125 0.001716
v 0.109080 0.156980 0.050834
v -0.117756 0.007926 0.003580
v -0.119140 0.007851 0.028884
v 0.128949 -0.220821 0.001332
v 0.126900 -0.148340 0.001429
v 0.124196 -0.148486 0.050856
v 0.126244 -0.220967 0.050760
v 0.122948 -0.060886 0.001483
v 0.120243 -0.061032 0.050910
v 0.122948 -0.060886 0.001483
v 0.126900 -0.148340 0.001429
v -0.140875 -0.122103 -0.009815
v -0.142063 -0.077718 -0.009753
v 0.128949 -0.220821 0.001332
v -0.139675 -0.166973 -0.009877
v 0.119487 0.015230 0.001529
v 0.116782 0.015084 0.050956
v 0.116996 0.069320 0.001560
v 0.114291 0.069174 0.050988
v 0.116996 0.069320 0.001560
v 0.119487 0.015230 0.001529
v -0.142668 -0.055137 -0.009721
v -0.133471 -0.027588 -0.005077
v 0.115490 0.098092 0.001578
v -0.117756 0.007926 0.003580
v -0.110072 1.329433 0.019924
v -0.080080 1.420146 0.021420
v 0.111768 0.157125 0.001716
v -0.124925 0.025122 0.009510
v -0.154299 0.205909 0.015218
v -0.158728 0.371896 0.015450
v -0.129235 0.372564 0.013135
v -0.124906 0.206169 0.012455
v -0.149858 0.039354 0.014985
v 0.104729 0.268791 0.001984
v 0.095562 0.414192 0.002331
v -0.133987 0.537732 0.013825
v -0.163136 0.536749 0.015680
v 0.086226 0.562291 0.002686
v 0.095562 0.414192 0.002331
v 0.086226 0.562291 0.002686
v 0.083650 0.562151 0.049759
v 0.092946 0.414050 0.050152
v 0.104729 0.268791 0.001984
v 0.102072 0.268647 0.050538
v -0.139167 0.881102 0.019823
v -0.139261 0.791684 0.019760
v 0.066061 0.800658 0.047682
v 0.057675 0.889705 0.046000
v -0.138014 0.683485 0.019792
v 0.074563 0.696503 0.049041
v -0.290160 -0.250754 0.033097
v -0.278561 -0.268213 0.033543
v -0.279040 -0.229507 0.033621
v -0.293370 -0.227070 0.033022
v -0.260605 -0.281645 0.034268
v -0.261755 -0.234051 0.034339
v -0.262905 -0.186456 0.034411
v -0.279518 -0.190801 0.033698
v -0.289414 -0.204605 0.033245
v 0.110656 -0.325212 0.049838
v -0.003916 -0.336907 0.044969
v -0.002286 -0.364895 0.044967
v 0.093645 -0.354182 0.049046
v -0.118488 -0.348603 0.040101
v -0.097977 -0.380926 0.040885
v -0.060837 -0.398561 0.042409
v -0.000305 -0.398259 0.044967
v 0.059291 -0.382506 0.047524
v -0.136572 1.060044 0.020093
v -0.138834 0.970531 0.019914
v 0.048933 0.978738 0.044312
v 0.037439 1.067650 0.042532
v -0.114383 1.238043 0.021817
v -0.130690 1.149715 0.020425
v 0.020797 1.156336 0.040568
v -0.002015 1.242947 0.037723
v -0.151154 1.148821 0.017732
v -0.159881 1.059025 0.017137
v -0.135339 1.238924 0.018628
v -0.163882 0.969436 0.016742
v -0.165362 0.879957 0.016453
v -0.166526 0.790492 0.016178
v -0.166182 0.682328 0.015919
v -0.005581 -0.303324 0.044984
v -0.128795 -0.312228 0.039757
v 0.117633 -0.294421 0.050210
v 0.120202 -0.268006 0.050386
v -0.025409 -0.268638 0.044234
v -0.136397 -0.280011 0.039518
v 0.112786 0.097946 0.050987
v 0.109080 0.156980 0.050834
v -0.125634 0.025083 0.022464
v -0.119140 0.007851 0.028884
v 0.126244 -0.220967 0.050760
v 0.124196 -0.148486 0.050856
v -0.143580 -0.122250 0.039613
v -0.142379 -0.167119 0.039550
v 0.120243 -0.061032 0.050910
v -0.144768 -0.077864 0.039675
v 0.116782 0.015084 0.050956
v -0.145372 -0.055284 0.039706
v 0.114291 0.069174 0.050988
v -0.135719 -0.027709 0.035997
v -0.110072 1.329433 0.019924
v -0.080080 1.420146 0.021420
v -0.149858 0.039354 0.014985
v -0.125343 0.206146 0.020447
v -0.154299 0.205909 0.015218
v -0.129625 0.372543 0.020243
v -0.158728 0.371896 0.015450
v 0.102072 0.268647 0.050538
v 0.092946 0.414050 0.050152
v -0.134325 0.537714 0.019989
v -0.163136 0.536749 0.015680
v 0.083650 0.562151 0.049759
v -0.126091 -0.312082 -0.009670
v -0.128795 -0.312228 0.039757
v -0.136397 -0.280011 0.039518
v -0.133692 -0.279865 -0.009910
v -0.159673 -0.265399 -0.010971
v -0.172321 -0.276979 -0.011534
v -0.211573 -0.253742 -0.013133
v -0.210116 -0.201419 -0.012940
v -0.184713 -0.291166 -0.012093
v -0.213932 -0.299931 -0.013350
v -0.212821 -0.201565 0.036488
v -0.214277 -0.253888 0.036294
v -0.175026 -0.277126 0.037893
v -0.162378 -0.265545 0.038457
v -0.216637 -0.300078 0.036078
v -0.187417 -0.291312 0.037334
v 0.126697 -0.252018 0.001158
v -0.139032 -0.191003 -0.009911
v -0.142362 -0.201955 -0.010079
v 0.123993 -0.252164 0.050586
v 0.126697 -0.252018 0.001158
v 0.123993 -0.252164 0.050586
v -0.141736 -0.191149 0.039517
v -0.145067 -0.202102 0.039348
v -0.213932 -0.299931 -0.013350
v -0.184713 -0.291166 -0.012093
v -0.187417 -0.291312 0.037334
v -0.216637 -0.300078 0.036078
v -0.172321 -0.276979 -0.011534
v -0.175026 -0.277126 0.037893
v -0.159673 -0.265399 -0.010971
v -0.162378 -0.265545 0.038457
v -0.145842 -0.265332 -0.010386
v -0.148546 -0.265478 0.039041
v -0.190577 -0.207064 0.037414
v -0.148546 -0.265478 0.039041
v -0.171691 -0.209058 0.038206
v -0.287455 -0.250607 -0.016330
v -0.275857 -0.268067 -0.015884
v -0.278561 -0.268213 0.033543
v -0.290160 -0.250754 0.033097
v -0.257900 -0.281499 -0.015160
v -0.260605 -0.281645 0.034268
v -0.235616 -0.293100 -0.014248
v -0.238321 -0.293247 0.035179
v -0.260201 -0.186310 -0.015017
v -0.276813 -0.190655 -0.015729
v -0.279518 -0.190801 0.033698
v -0.262905 -0.186456 0.034411
v -0.286710 -0.204459 -0.016182
v -0.289414 -0.204605 0.033245
v -0.210116 -0.201419 -0.012940
v -0.236097 -0.192224 -0.014014
v -0.238802 -0.192370 0.035414
v -0.212821 -0.201565 0.036488
v -0.235857 -0.242662 -0.014131
v -0.235616 -0.293100 -0.014248
v -0.236097 -0.192224 -0.014014
v -0.238802 -0.192370 0.035414
v -0.238561 -0.242808 0.035297
v -0.238321 -0.293247 0.035179
v -0.293370 -0.227070 0.033022
v -0.290665 -0.226924 -0.016406
v -0.168987 -0.208912 -0.011221
v -0.153082 -0.207592 -0.010546
v -0.140875 -0.122103 -0.009815
v -0.143580 -0.122250 0.039613
v -0.139675 -0.166973 -0.009877
v -0.142379 -0.167119 0.039550
v -0.190577 -0.207064 0.037414
v -0.187872 -0.206918 -0.012014
v -0.171691 -0.209058 0.038206
v -0.168987 -0.208912 -0.011221
v -0.139032 -0.191003 -0.009911
v -0.141736 -0.191149 0.039517
v -0.142362 -0.201955 -0.010079
v -0.145067 -0.202102 0.039348
v -0.153082 -0.207592 -0.010546
v -0.155786 -0.207738 0.038881
v -0.155786 -0.207738 0.038881
v -0.145842 -0.265332 -0.010386
v -0.187872 -0.206918 -0.012014
vn -0.1243 0.0484 -0.9911
vn -0.0579 0.0111 -0.9983
vn -0.0779 0.0221 -0.9967
vn -0.8497 -0.5250 -0.0481
vn -0.8498 -0.5250 -0.0481
vn -0.5005 -0.8652 -0.0300
vn -0.2081 0.0436 0.9771
vn -0.1620 0.0171 0.9866
vn -0.1422 0.0061 0.9898
vn 0.8316 0.5534 0.0471
vn 0.9033 0.4260 0.0507
vn 0.9033 0.4259 0.0507
vn 0.9266 -0.3728 0.0496
vn 0.9849 -0.1649 0.0534
vn 0.9849 -0.1648 0.0534
vn 0.9266 -0.3729 0.0496
vn 0.9874 -0.1491 0.0535
vn 0.9874 -0.1491 0.0536
vn -0.9298 0.3646 -0.0498
vn -0.9861 0.1573 -0.0535
vn -0.9300 0.3643 -0.0498
vn -0.9981 -0.0267 -0.0547
vn -0.9981 -0.0266 -0.0547
vn 0.9938 0.0966 0.0547
vn 0.9921 0.1133 0.0546
vn 0.9921 0.1132 0.0546
vn 0.9863 0.1559 0.0544
vn 0.9744 0.2181 0.0540
vn 0.9744 0.2182 0.0540
vn 0.9543 0.2941 0.0531
vn 0.9958 0.0737 0.0547
vn 0.9947 0.0876 0.0547
vn 0.9305 0.3627 0.0520
vn -0.0517 0.0039 -0.9987
vn -0.0500 0.0062 -0.9987
vn -0.0508 0.0070 -0.9987
vn -0.0511 0.0043 -0.9987
vn -0.0473 0.0073 -0.9989
vn -0.0483 0.0081 -0.9988
vn 0.0422 0.0025 -0.9991
vn 0.0422 0.0026 -0.9991
vn -0.0449 0.0071 -0.9990
vn -0.0457 0.0077 -0.9989
vn -0.0445 0.0069 -0.9990
vn -0.0452 0.0064 -0.9990
vn -0.0482 0.0076 -0.9988
vn -0.0476 0.0060 -0.9988
vn -0.0580 0.0114 -0.9983
vn -0.0526 0.0075 -0.9986
vn -0.0489 0.0122 -0.9987
vn -0.0715 0.0220 -0.9972
vn -0.0424 0.0078 -0.9991
vn -0.0420 0.0053 -0.9991
vn -0.0434 0.0043 -0.9990
vn -0.0471 0.0040 -0.9989
vn -0.0542 0.0030 -0.9985
vn -0.8992 -0.4347 -0.0505
vn -0.5881 -0.8081 -0.0346
vn -0.1463 -0.9892 -0.0110
vn -0.1464 -0.9892 -0.0110
vn 0.3551 -0.9347 0.0167
vn 0.7083 -0.7049 0.0367
vn 0.3551 -0.9347 0.0166
vn 0.1090 -0.9940 0.0030
vn 0.9967 0.0592 0.0547
vn 0.9965 0.0627 0.0547
vn -0.9525 0.3002 -0.0512
vn 0.9985 -0.0021 0.0546
vn 0.9978 0.0374 0.0547
vn 0.9975 0.0452 0.0547
vn 0.9975 0.0456 0.0547
vn 0.9973 0.0481 0.0547
vn -0.0162 0.1019 -0.9947
vn 0.0291 0.0298 -0.9991
vn 0.0346 0.0184 -0.9992
vn 0.0040 0.0735 -0.9973
vn -0.0518 0.0951 -0.9941
vn -0.0501 0.1097 -0.9927
vn -0.1211 0.0460 -0.9916
vn -0.1404 0.0566 -0.9885
vn -0.0407 0.0147 -0.9991
vn -0.0575 0.0266 -0.9980
vn -0.1053 0.0052 -0.9944
vn -0.0785 0.0018 -0.9969
vn -0.0520 0.0024 -0.9986
vn -0.0523 0.0045 -0.9986
vn -0.1309 0.0100 -0.9913
vn -0.0410 0.0038 -0.9992
vn -0.0450 0.0025 -0.9990
vn -0.0521 0.0026 -0.9986
vn -0.0649 0.0022 -0.9979
vn -0.0488 0.0027 -0.9988
vn 0.9964 0.0652 0.0547
vn -0.1315 0.0022 0.9913
vn -0.1342 0.0011 0.9910
vn -0.1350 0.0019 0.9908
vn -0.1325 0.0030 0.9912
vn -0.1359 -0.0011 0.9907
vn -0.1353 -0.0007 0.9908
vn -0.0422 -0.0025 0.9991
vn -0.0423 -0.0025 0.9991
vn -0.1288 0.0019 0.9917
vn -0.1291 0.0021 0.9916
vn -0.1300 0.0026 0.9915
vn -0.1292 0.0017 0.9916
vn -0.1422 0.0064 0.9898
vn -0.1325 0.0025 0.9912
vn -0.1319 0.0010 0.9913
vn -0.1369 0.0025 0.9906
vn -0.1331 0.0072 0.9911
vn -0.1265 0.0030 0.9920
vn -0.1556 0.0170 0.9877
vn -0.1263 0.0002 0.9920
vn -0.1278 -0.0009 0.9918
vn -0.1314 -0.0010 0.9913
vn -0.1385 -0.0020 0.9904
vn -0.1357 0.0903 0.9866
vn -0.1250 0.0097 0.9921
vn -0.1417 0.0216 0.9897
vn -0.1338 0.1050 0.9854
vn -0.0552 0.0248 0.9982
vn -0.0498 0.0134 0.9987
vn -0.1001 0.0970 0.9902
vn -0.0801 0.0686 0.9944
vn -0.2048 0.0413 0.9779
vn -0.2240 0.0519 0.9732
vn -0.2147 0.0051 0.9767
vn -0.1365 -0.0005 0.9906
vn -0.1893 0.0002 0.9819
vn -0.1363 -0.0027 0.9907
vn -0.1625 -0.0033 0.9867
vn -0.1252 -0.0012 0.9921
vn -0.1293 -0.0025 0.9916
vn -0.1363 -0.0024 0.9907
vn -0.1491 -0.0028 0.9888
vn -0.1330 -0.0023 0.9911
vn -0.9661 -0.2527 -0.0536
vn -0.9197 -0.3893 -0.0510
vn -0.9196 -0.3894 -0.0515
vn 0.9904 -0.1276 0.0538
vn 0.0380 -0.9993 -0.0014
vn 0.4821 -0.8758 0.0238
vn 0.4821 -0.8758 0.0246
vn 0.0380 -0.9993 -0.0009
vn 0.7159 -0.6972 0.0371
vn 0.7158 -0.6973 0.0371
vn 0.4018 -0.9155 0.0187
vn 0.4018 -0.9155 0.0193
vn -0.4853 -0.8739 -0.0291
vn -0.4854 -0.8739 -0.0281
vn -0.0423 -0.0026 0.9991
vn -0.9394 -0.3388 -0.0524
vn -0.7211 -0.6915 -0.0415
vn -0.7211 -0.6916 -0.0415
vn -0.5270 -0.8493 -0.0314
vn -0.5271 -0.8492 -0.0314
vn -0.3857 -0.9223 -0.0238
vn 0.0383 0.9993 0.0051
vn -0.5637 0.8255 -0.0284
vn -0.5638 0.8254 -0.0284
vn 0.0383 0.9993 0.0045
vn -0.9327 0.3572 -0.0499
vn -0.9327 0.3572 -0.0500
vn 0.2907 0.9566 0.0187
vn 0.2880 0.9575 0.0186
vn -0.9984 0.0163 -0.0546
vn 0.1787 0.9838 0.0127
vn 0.0192 0.9998 0.0039
vn 0.0192 0.9998 0.0040
vn -0.9956 0.0768 -0.0540
vn -0.9956 0.0768 -0.0542
vn -0.7617 0.6467 -0.0398
vn -0.7618 0.6466 -0.0398
vn -0.2523 0.9676 -0.0109
vn -0.2524 0.9676 -0.0113
vt 0.742076 0.875438
vt 0.749877 0.854204
vt 0.733862 0.856457
vt 0.911153 0.985964
vt 0.907270 0.985964
vt 0.909212 0.994141
vt 0.807700 0.986070
vt 0.815767 0.967027
vt 0.799736 0.964895
vt 0.909212 0.169514
vt 0.907697 0.178690
vt 0.910726 0.178690
vt 0.916619 0.703069
vt 0.916619 0.693587
vt 0.901804 0.693587
vt 0.901804 0.703069
vt 0.916619 0.685593
vt 0.901804 0.685593
vt 0.915368 0.968795
vt 0.916619 0.960081
vt 0.901804 0.960081
vt 0.903056 0.968795
vt 0.916619 0.953270
vt 0.901804 0.953270
vt 0.915223 0.335727
vt 0.914762 0.308759
vt 0.903662 0.308759
vt 0.903200 0.335727
vt 0.914307 0.281741
vt 0.904116 0.281741
vt 0.913863 0.254569
vt 0.904560 0.254569
vt 0.913235 0.227640
vt 0.905188 0.227640
vt 0.916065 0.394196
vt 0.915688 0.362691
vt 0.902736 0.362691
vt 0.902358 0.394196
vt 0.912229 0.201262
vt 0.906195 0.201262
vt 0.708814 0.662746
vt 0.710309 0.695337
vt 0.768886 0.694469
vt 0.769540 0.662968
vt 0.711861 0.722252
vt 0.767993 0.721421
vt 0.652370 0.396815
vt 0.655354 0.400829
vt 0.654945 0.389165
vt 0.650940 0.390106
vt 0.660098 0.401898
vt 0.659753 0.387548
vt 0.659408 0.373197
vt 0.654535 0.377501
vt 0.651511 0.382927
vt 0.748170 0.339814
vt 0.731152 0.336790
vt 0.731053 0.344400
vt 0.758245 0.346244
vt 0.714085 0.337572
vt 0.703860 0.342557
vt 0.698526 0.350982
vt 0.730987 0.352853
vt 0.763448 0.354723
vt 0.713481 0.749166
vt 0.767000 0.748375
vt 0.715644 0.776072
vt 0.765235 0.775340
vt 0.718825 0.802964
vt 0.762023 0.802325
vt 0.724934 0.829272
vt 0.757021 0.828792
vt 0.712991 0.803050
vt 0.718971 0.829903
vt 0.709004 0.776170
vt 0.706346 0.749271
vt 0.704397 0.722362
vt 0.702536 0.695452
vt 0.700777 0.662887
vt 0.916619 0.780685
vt 0.916619 0.770714
vt 0.901804 0.770714
vt 0.901804 0.780685
vt 0.916619 0.759338
vt 0.901804 0.759338
vt 0.916619 0.724970
vt 0.916619 0.713017
vt 0.901804 0.713017
vt 0.901804 0.724970
vt 0.916619 0.742253
vt 0.901804 0.742253
vt 0.766943 0.371815
vt 0.765847 0.363896
vt 0.730990 0.362991
vt 0.725889 0.373724
vt 0.696132 0.362086
vt 0.694443 0.371899
vt 0.901807 0.575032
vt 0.916617 0.575032
vt 0.916573 0.557198
vt 0.901850 0.557198
vt 0.913004 0.980420
vt 0.905419 0.980420
vt 0.916619 0.671279
vt 0.916619 0.649415
vt 0.901804 0.649415
vt 0.901804 0.671279
vt 0.916619 0.623019
vt 0.901804 0.623019
vt 0.769867 0.434149
vt 0.769750 0.407753
vt 0.694638 0.419516
vt 0.694927 0.432901
vt 0.769308 0.385894
vt 0.694345 0.405985
vt 0.916619 0.600045
vt 0.901804 0.600045
vt 0.916619 0.583719
vt 0.901804 0.583719
vt 0.770044 0.473449
vt 0.769962 0.457123
vt 0.695075 0.439710
vt 0.698095 0.447979
vt 0.770081 0.482136
vt 0.703000 0.458780
vt 0.727587 0.856728
vt 0.737515 0.883543
vt 0.770043 0.499969
vt 0.701165 0.464330
vt 0.695928 0.519280
vt 0.697541 0.569315
vt 0.705874 0.569002
vt 0.704238 0.518838
vt 0.694230 0.469076
vt 0.769978 0.533703
vt 0.769897 0.577628
vt 0.707367 0.618803
vt 0.699134 0.619014
vt 0.769813 0.622369
vt 0.916379 0.479537
vt 0.916267 0.434796
vt 0.902157 0.434796
vt 0.902045 0.479537
vt 0.916489 0.523463
vt 0.901935 0.523463
vt 0.836759 0.832661
vt 0.838109 0.805735
vt 0.779527 0.805307
vt 0.780623 0.832252
vt 0.839358 0.773134
vt 0.778636 0.773812
vt 0.894418 0.492875
vt 0.891352 0.487472
vt 0.891032 0.499139
vt 0.895044 0.500049
vt 0.886447 0.483205
vt 0.886211 0.497558
vt 0.885976 0.511911
vt 0.890711 0.510806
vt 0.893664 0.506769
vt 0.782269 0.465528
vt 0.814714 0.463409
vt 0.814584 0.454957
vt 0.787407 0.457009
vt 0.847159 0.461291
vt 0.841761 0.452906
vt 0.831499 0.448000
vt 0.814426 0.447349
vt 0.797432 0.450502
vt 0.833380 0.886508
vt 0.835341 0.859586
vt 0.781818 0.859198
vt 0.783785 0.886148
vt 0.824492 0.939777
vt 0.830402 0.913423
vt 0.787200 0.913108
vt 0.792403 0.939537
vt 0.836236 0.913465
vt 0.840022 0.886556
vt 0.830461 0.940362
vt 0.842477 0.859638
vt 0.844224 0.832715
vt 0.845882 0.805792
vt 0.847396 0.773215
vt 0.814789 0.473547
vt 0.849638 0.472376
vt 0.779939 0.474719
vt 0.778904 0.482646
vt 0.819972 0.484240
vt 0.851403 0.482175
vt 0.776676 0.592987
vt 0.776907 0.610820
vt 0.845519 0.574669
vt 0.843588 0.569152
vt 0.776647 0.496743
vt 0.776372 0.518605
vt 0.851572 0.529792
vt 0.851762 0.516259
vt 0.776457 0.545000
vt 0.851385 0.543179
vt 0.776538 0.567974
vt 0.851290 0.549989
vt 0.776604 0.584300
vt 0.848360 0.558291
vt 0.822045 0.967250
vt 0.812321 0.994141
vt 0.852495 0.579354
vt 0.842853 0.629197
vt 0.851166 0.629572
vt 0.841596 0.679371
vt 0.849931 0.679621
vt 0.777228 0.644553
vt 0.777639 0.688477
vt 0.840476 0.729181
vt 0.848710 0.729330
vt 0.778058 0.733216
vt 0.916619 0.792044
vt 0.901804 0.792044
vt 0.901804 0.802001
vt 0.916619 0.802001
vt 0.687323 0.376630
vt 0.683595 0.373325
vt 0.672857 0.380889
vt 0.674004 0.396626
vt 0.679902 0.369231
vt 0.671542 0.367012
vt 0.872030 0.506746
vt 0.873057 0.491000
vt 0.862262 0.483518
vt 0.858559 0.486852
vt 0.874265 0.477113
vt 0.865923 0.479396
vt 0.768234 0.376531
vt 0.694188 0.398738
vt 0.693095 0.395488
vt 0.901804 0.680703
vt 0.916619 0.680703
vt 0.777649 0.487372
vt 0.851863 0.509012
vt 0.852931 0.505753
vt 0.916619 0.830626
vt 0.916619 0.821977
vt 0.901804 0.821977
vt 0.901804 0.830626
vt 0.916619 0.816464
vt 0.901804 0.816464
vt 0.916619 0.811481
vt 0.901804 0.811481
vt 0.916619 0.807577
vt 0.901804 0.807577
vt 0.865823 0.504816
vt 0.854658 0.486702
vt 0.860520 0.503984
vt 0.916619 0.857015
vt 0.916619 0.850804
vt 0.901804 0.850804
vt 0.901804 0.857015
vt 0.916619 0.844303
vt 0.901804 0.844303
vt 0.916619 0.837092
vt 0.901804 0.837092
vt 0.916619 0.880942
vt 0.916619 0.876079
vt 0.901804 0.876079
vt 0.901804 0.880942
vt 0.916619 0.871077
vt 0.901804 0.871077
vt 0.916619 0.895834
vt 0.916619 0.887983
vt 0.901804 0.887983
vt 0.901804 0.895834
vt 0.666168 0.384576
vt 0.665526 0.369382
vt 0.666809 0.399770
vt 0.879248 0.509834
vt 0.879774 0.494636
vt 0.880300 0.479437
vt 0.901804 0.864217
vt 0.916619 0.864217
vt 0.685492 0.393776
vt 0.689994 0.393945
vt 0.916619 0.939882
vt 0.901804 0.939882
vt 0.916619 0.926348
vt 0.901804 0.926348
vt 0.901804 0.902335
vt 0.916619 0.902335
vt 0.901804 0.907702
vt 0.916619 0.907702
vt 0.916619 0.919100
vt 0.901804 0.919100
vt 0.916619 0.915670
vt 0.901804 0.915670
vt 0.916619 0.912207
vt 0.901804 0.912207
vt 0.856020 0.504187
vt 0.691223 0.376451
vt 0.680197 0.394649
s 1
usemtl lambert2.004
f 1/1/1 2/2/2 3/3/3
f 4/4/4 5/5/5 6/6/6
f 7/7/7 8/8/8 9/9/9
f 10/10/10 11/11/11 12/12/12
f 13/13/13 14/14/14 15/15/15
f 13/13/13 15/15/15 16/16/16
f 14/14/14 17/17/17 18/18/18
f 14/14/14 18/18/18 15/15/15
f 19/19/19 20/20/20 21/21/20
f 19/19/19 21/21/20 22/22/21
f 20/20/20 23/23/22 24/24/23
f 20/20/20 24/24/23 21/21/20
f 25/25/24 26/26/25 27/27/26
f 25/25/24 27/27/26 28/28/24
f 26/26/25 29/29/27 30/30/27
f 26/26/25 30/30/27 27/27/26
f 30/30/27 29/29/27 31/31/28
f 30/30/27 31/31/28 32/32/29
f 31/31/28 33/33/30 34/34/30
f 31/31/28 34/34/30 32/32/29
f 35/35/31 36/36/32 37/37/32
f 35/35/31 37/37/32 38/38/31
f 36/36/32 25/25/24 28/28/24
f 36/36/32 28/28/24 37/37/32
f 34/34/30 33/33/30 39/39/33
f 34/34/30 39/39/33 40/40/33
f 39/39/33 12/12/12 11/11/11
f 39/39/33 11/11/11 40/40/33
f 41/41/34 42/42/35 43/43/36
f 41/41/34 43/43/36 44/44/37
f 42/42/35 45/45/38 46/46/39
f 42/42/35 46/46/39 43/43/36
f 47/47/40 48/48/40 49/49/40
f 47/47/40 49/49/40 50/50/40
f 48/48/40 51/51/40 52/52/40
f 48/48/40 52/52/40 49/49/40
f 49/49/40 52/52/40 53/53/40
f 49/49/40 53/53/40 54/54/40
f 50/50/40 49/49/40 54/54/40
f 50/50/40 54/54/40 55/55/40
f 56/56/41 57/57/40 58/58/40
f 56/56/41 58/58/40 59/59/40
f 57/57/40 60/60/40 61/61/40
f 57/57/40 61/61/40 58/58/40
f 58/58/40 61/61/40 62/62/40
f 58/58/40 62/62/40 63/63/40
f 59/59/40 58/58/40 63/63/40
f 59/59/40 63/63/40 64/64/40
f 46/46/39 45/45/38 65/65/42
f 46/46/39 65/65/42 66/66/43
f 65/65/42 67/67/44 68/68/45
f 65/65/42 68/68/45 66/66/43
f 68/68/45 67/67/44 69/69/46
f 68/68/45 69/69/46 70/70/47
f 69/69/46 71/71/48 72/72/49
f 69/69/46 72/72/49 70/70/47
f 72/72/49 71/71/48 3/3/3
f 72/72/49 3/3/3 2/2/2
f 71/71/48 69/69/46 73/73/50
f 71/71/48 73/73/50 74/74/51
f 69/69/46 67/67/44 75/75/52
f 69/69/46 75/75/52 73/73/50
f 75/75/52 67/67/44 65/65/42
f 75/75/52 65/65/42 76/76/53
f 65/65/42 45/45/38 77/77/54
f 65/65/42 77/77/54 76/76/53
f 77/77/54 45/45/38 42/42/35
f 77/77/54 42/42/35 78/78/55
f 42/42/35 41/41/34 79/79/56
f 42/42/35 79/79/56 78/78/55
f 80/80/57 81/81/58 82/82/58
f 80/80/57 82/82/58 83/83/57
f 81/81/58 84/84/59 85/85/60
f 81/81/58 85/85/60 82/82/58
f 86/86/61 87/87/62 88/88/62
f 86/86/61 88/88/62 89/89/63
f 87/87/62 13/13/13 16/16/16
f 87/87/62 16/16/16 88/88/62
f 85/85/60 84/84/59 90/90/64
f 85/85/60 90/90/64 91/91/64
f 90/90/64 86/86/61 89/89/63
f 90/90/64 89/89/63 91/91/64
f 92/92/40 93/93/40 94/94/40
f 92/92/40 94/94/40 95/95/40
f 93/93/40 64/64/40 63/63/40
f 93/93/40 63/63/40 94/94/40
f 94/94/40 63/63/40 62/62/40
f 94/94/40 62/62/40 96/96/40
f 95/95/40 94/94/40 96/96/40
f 95/95/40 96/96/40 97/97/40
f 98/98/65 99/99/65 100/100/66
f 98/98/65 100/100/66 101/101/66
f 102/102/67 103/103/67 5/5/5
f 102/102/67 5/5/5 4/4/4
f 104/104/68 105/105/69 106/106/69
f 104/104/68 106/106/69 107/107/68
f 105/105/69 108/108/70 109/109/70
f 105/105/69 109/109/70 106/106/69
f 110/110/40 111/111/40 112/112/40
f 110/110/40 112/112/40 113/113/40
f 111/111/40 114/114/40 115/115/40
f 111/111/40 115/115/40 112/112/40
f 109/109/70 108/108/70 116/116/71
f 109/109/70 116/116/71 117/117/71
f 116/116/71 118/118/72 119/119/72
f 116/116/71 119/119/72 117/117/71
f 120/120/73 121/121/74 122/122/75
f 120/120/73 122/122/75 123/123/76
f 121/121/74 110/110/40 113/113/40
f 121/121/74 113/113/40 122/122/75
f 99/99/65 98/98/65 119/119/72
f 99/99/65 119/119/72 118/118/72
f 103/103/67 102/102/67 19/19/19
f 103/103/67 19/19/19 22/22/21
f 124/124/77 120/120/73 123/123/76
f 124/124/77 123/123/76 125/125/78
f 126/126/79 127/127/80 1/1/1
f 126/126/79 1/1/1 3/3/3
f 126/126/79 3/3/3 71/71/48
f 126/126/79 71/71/48 74/74/51
f 128/128/81 124/124/77 125/125/78
f 128/128/81 125/125/78 129/129/82
f 130/130/83 131/131/84 132/132/85
f 130/130/83 132/132/85 133/133/86
f 130/130/83 133/133/86 129/129/82
f 130/130/83 129/129/82 134/134/87
f 135/135/88 128/128/81 129/129/82
f 135/135/88 129/129/82 133/133/86
f 135/135/88 133/133/86 132/132/85
f 135/135/88 132/132/85 136/136/89
f 137/137/90 132/132/85 131/131/84
f 137/137/90 131/131/84 138/138/91
f 137/137/90 138/138/91 79/79/56
f 137/137/90 79/79/56 41/41/34
f 136/136/89 132/132/85 137/137/90
f 136/136/89 137/137/90 139/139/92
f 137/137/90 41/41/34 44/44/37
f 137/137/90 44/44/37 139/139/92
f 140/140/66 141/141/93 142/142/93
f 140/140/66 142/142/93 143/143/66
f 141/141/93 35/35/31 38/38/31
f 141/141/93 38/38/31 142/142/93
f 101/101/66 100/100/66 144/144/66
f 101/101/66 144/144/66 145/145/66
f 144/144/66 140/140/66 143/143/66
f 144/144/66 143/143/66 145/145/66
f 146/146/94 147/147/95 148/148/96
f 146/146/94 148/148/96 149/149/97
f 147/147/95 150/150/98 151/151/99
f 147/147/95 151/151/99 148/148/96
f 152/152/100 153/153/100 154/154/100
f 152/152/100 154/154/100 155/155/100
f 153/153/100 156/156/100 157/157/100
f 153/153/100 157/157/100 154/154/100
f 154/154/100 157/157/100 158/158/100
f 154/154/100 158/158/100 159/159/100
f 155/155/100 154/154/100 159/159/100
f 155/155/100 159/159/100 160/160/101
f 161/161/100 162/162/100 163/163/100
f 161/161/100 163/163/100 164/164/100
f 162/162/100 165/165/100 166/166/100
f 162/162/100 166/166/100 163/163/100
f 163/163/100 166/166/100 167/167/100
f 163/163/100 167/167/100 168/168/100
f 164/164/100 163/163/100 168/168/100
f 164/164/100 168/168/100 169/169/100
f 170/170/102 171/171/103 172/172/104
f 170/170/102 172/172/104 173/173/105
f 171/171/103 146/146/94 149/149/97
f 171/171/103 149/149/97 172/172/104
f 174/174/106 175/175/107 176/176/108
f 174/174/106 176/176/108 177/177/109
f 175/175/107 170/170/102 173/173/105
f 175/175/107 173/173/105 176/176/108
f 8/8/8 174/174/106 177/177/109
f 8/8/8 177/177/109 9/9/9
f 170/170/102 175/175/107 178/178/110
f 170/170/102 178/178/110 179/179/111
f 175/175/107 174/174/106 180/180/112
f 175/175/107 180/180/112 178/178/110
f 146/146/94 171/171/103 181/181/113
f 146/146/94 181/181/113 182/182/114
f 171/171/103 170/170/102 179/179/111
f 171/171/103 179/179/111 181/181/113
f 150/150/98 147/147/95 183/183/115
f 150/150/98 183/183/115 184/184/116
f 147/147/95 146/146/94 182/182/114
f 147/147/95 182/182/114 183/183/115
f 165/165/100 162/162/100 185/185/100
f 165/165/100 185/185/100 186/186/100
f 162/162/100 161/161/100 187/187/100
f 162/162/100 187/187/100 185/185/100
f 185/185/100 187/187/100 188/188/100
f 185/185/100 188/188/100 189/189/100
f 186/186/100 185/185/100 189/189/100
f 186/186/100 189/189/100 190/190/100
f 191/191/117 192/192/118 193/193/119
f 191/191/117 193/193/119 194/194/120
f 195/195/100 196/196/100 197/197/100
f 195/195/100 197/197/100 198/198/100
f 196/196/100 199/199/100 200/200/100
f 196/196/100 200/200/100 197/197/100
f 200/200/100 199/199/100 201/201/121
f 200/200/100 201/201/121 202/202/122
f 201/201/121 203/203/123 204/204/124
f 201/201/121 204/204/124 202/202/122
f 194/194/120 204/204/124 203/203/123
f 194/194/120 203/203/123 191/191/117
f 180/180/112 174/174/106 8/8/8
f 180/180/112 8/8/8 205/205/125
f 8/8/8 7/7/7 206/206/126
f 8/8/8 206/206/126 205/205/125
f 207/207/127 193/193/119 208/208/128
f 207/207/127 208/208/128 209/209/129
f 208/208/128 210/210/130 211/211/131
f 208/208/128 211/211/131 209/209/129
f 210/210/130 208/208/128 212/212/132
f 210/210/130 212/212/132 213/213/133
f 208/208/128 193/193/119 192/192/118
f 208/208/128 192/192/118 212/212/132
f 214/214/134 150/150/98 184/184/116
f 214/214/134 184/184/116 215/215/135
f 214/214/134 215/215/135 211/211/131
f 214/214/134 211/211/131 210/210/130
f 216/216/136 151/151/99 150/150/98
f 216/216/136 150/150/98 214/214/134
f 216/216/136 214/214/134 210/210/130
f 216/216/136 210/210/130 213/213/133
f 217/217/137 80/80/57 83/83/57
f 217/217/137 83/83/57 218/218/137
f 217/217/137 218/218/137 219/219/138
f 217/217/137 219/219/138 220/220/139
f 221/221/40 222/222/40 223/223/40
f 221/221/40 223/223/40 224/224/40
f 222/222/40 225/225/40 226/226/40
f 222/222/40 226/226/40 223/223/40
f 227/227/100 228/228/100 229/229/100
f 227/227/100 229/229/100 230/230/100
f 228/228/100 231/231/100 232/232/100
f 228/228/100 232/232/100 229/229/100
f 115/115/40 114/114/40 233/233/40
f 115/115/40 233/233/40 234/234/40
f 233/233/40 92/92/40 235/235/40
f 233/233/40 235/235/40 234/234/40
f 236/236/140 18/18/18 17/17/17
f 236/236/140 17/17/17 237/237/140
f 236/236/140 237/237/140 104/104/68
f 236/236/140 104/104/68 107/107/68
f 188/188/100 238/238/100 239/239/100
f 188/188/100 239/239/100 240/240/100
f 238/238/100 195/195/100 198/198/100
f 238/238/100 198/198/100 239/239/100
f 241/241/141 242/242/142 243/243/143
f 241/241/141 243/243/143 244/244/144
f 243/243/143 242/242/142 245/245/145
f 243/243/143 245/245/145 246/246/146
f 245/245/145 247/247/147 248/248/148
f 245/245/145 248/248/148 246/246/146
f 248/248/148 247/247/147 249/249/149
f 248/248/148 249/249/149 250/250/150
f 249/249/149 220/220/139 219/219/138
f 249/249/149 219/219/138 250/250/150
f 251/251/100 227/227/100 230/230/100
f 251/251/100 230/230/100 252/252/151
f 251/251/100 252/252/151 190/190/100
f 251/251/100 190/190/100 253/253/100
f 254/254/152 255/255/153 256/256/154
f 254/254/152 256/256/154 257/257/152
f 255/255/153 258/258/155 259/259/156
f 255/255/153 259/259/156 256/256/154
f 259/259/156 258/258/155 260/260/157
f 259/259/156 260/260/157 261/261/157
f 260/260/157 241/241/141 244/244/144
f 260/260/157 244/244/144 261/261/157
f 262/262/158 263/263/159 264/264/160
f 262/262/158 264/264/160 265/265/161
f 263/263/159 266/266/162 267/267/163
f 263/263/159 267/267/163 264/264/160
f 268/268/164 269/269/165 270/270/165
f 268/268/164 270/270/165 271/271/164
f 269/269/165 262/262/158 265/265/161
f 269/269/165 265/265/161 270/270/165
f 53/53/40 52/52/40 272/272/40
f 53/53/40 272/272/40 273/273/40
f 52/52/40 51/51/40 274/274/40
f 52/52/40 274/274/40 272/272/40
f 272/272/40 274/274/40 224/224/40
f 272/272/40 224/224/40 223/223/40
f 273/273/40 272/272/40 223/223/40
f 273/273/40 223/223/40 226/226/40
f 227/227/100 275/275/100 276/276/100
f 227/227/100 276/276/100 228/228/100
f 275/275/100 158/158/100 157/157/100
f 275/275/100 157/157/100 276/276/100
f 276/276/100 157/157/100 156/156/100
f 276/276/100 156/156/100 277/277/100
f 228/228/100 276/276/100 277/277/100
f 228/228/100 277/277/100 231/231/100
f 278/278/166 267/267/163 266/266/162
f 278/278/166 266/266/162 279/279/166
f 278/278/166 279/279/166 254/254/152
f 278/278/166 254/254/152 257/257/152
f 95/95/40 97/97/40 280/280/40
f 95/95/40 280/280/40 281/281/40
f 95/95/40 281/281/40 235/235/40
f 95/95/40 235/235/40 92/92/40
f 24/24/23 23/23/22 282/282/23
f 24/24/23 282/282/23 283/283/23
f 282/282/23 284/284/23 285/285/23
f 282/282/23 285/285/23 283/283/23
f 268/268/164 271/271/164 286/286/167
f 268/268/164 286/286/167 287/287/167
f 286/286/167 288/288/168 289/289/169
f 286/286/167 289/289/169 287/287/167
f 285/285/23 284/284/23 290/290/170
f 285/285/23 290/290/170 291/291/171
f 290/290/170 292/292/172 293/293/173
f 290/290/170 293/293/173 291/291/171
f 293/293/173 292/292/172 294/294/174
f 293/293/173 294/294/174 295/295/175
f 294/294/174 289/289/169 288/288/168
f 294/294/174 288/288/168 295/295/175
f 188/188/100 240/240/100 296/296/100
f 188/188/100 296/296/100 189/189/100
f 296/296/100 253/253/100 190/190/100
f 296/296/100 190/190/100 189/189/100
f 297/297/40 221/221/40 224/224/40
f 297/297/40 224/224/40 298/298/40
f 297/297/40 298/298/40 280/280/40
f 297/297/40 280/280/40 97/97/40
